<svg xmlns="http://www.w3.org/2000/svg" width="91" height="121" fill="none" viewBox="0 0 91 121"><path fill="#7d7664" d="M27.9993 109.191c5.7337-5.984 6.9092-15.2359 2.6256-20.6655s-12.4042-4.9804-18.1378 1.0033c-5.73362 5.9837-6.90911 15.2362-2.62553 20.6652 4.28353 5.43 12.40413 4.981 18.13773-1.003"/><path fill="#c2bec1" d="M25.2674 105.721c3.7177-3.88 4.4805-9.8786 1.7037-13.3982-2.7767-3.5197-8.0415-3.2277-11.7592.6521-3.7177 3.8799-4.4804 9.8781-1.7037 13.3981 2.7768 3.52 8.0416 3.228 11.7592-.652"/><path fill="#fff6f8" d="M24.2899 99.326c-.2449 1.283-.8527 2.437-1.7286 3.281-.8758.844-1.9701 1.33-3.1117 1.382-.5056.023-1.0088-.091-1.4694-.332-.4607-.24-.866-.602-1.1835-1.055-.3176-.453-.5386-.985-.6454-1.554-.1069-.569-.0965-1.1586.0301-1.722.2439-1.284.8516-2.4386 1.7276-3.2825s1.9708-1.3295 3.1127-1.3805c.5056-.0228 1.0088.0908 1.4694.3316.4607.2408.866.6022 1.1836 1.0553.3175.453.5385.9853.6453 1.5541.1069.5688.0965 1.1585-.0301 1.722"/><path fill="#9fbfd4" d="M27.2843 85.5481c-6.0223-3.0044-14.048.6457-17.93084 8.1568-1.17838 2.2257-1.87932 4.7421-2.04487 7.3411l25.33611-.306c1.6843-6.3758-.3546-12.6905-5.3604-15.1919" style="mix-blend-mode:multiply"/><path fill="#d83b29" d="M83.6556 86.4652s-.3664-21.0717-5.6736-25.3608c-2.4349-1.9576-4.1724-5.6553-5.3189-9.088l-4.1843-13.7781h-3.7115l3.7292 27.5427c.4272 2.447.1166 4.9884-.8806 7.2051l-7.1688 15.8786c-.9988 2.2159.3723 3.4802-1.773 3.1471-5.2593-.7755-10.3955-2.4097-15.2536-4.8533V71.5247c0-1.1922.2043-2.3728.6011-3.4742.3969-1.1014.9786-2.102 1.7119-2.9448.7332-.8427 1.6037-1.511 2.5616-1.9666s1.9845-.6897 3.0211-.6888v-8.2859H30.7436c-8.1506 0-15.9674 3.7239-21.73074 10.3526S.01172 80.1361.01172 89.5104v9.2104H76.5814z"/><path fill="#7d7664" d="m46.2088 94.778-8.9359-7.375c-.1239-.089-.2307-.2062-.3138-.3445-.083-.1382-.1405-.2945-.169-.4593a1.41 1.41 0 0 1 .0034-.4988c.0307-.1643.0904-.3196.1753-.4563s.1933-.252.3184-.3387.2644-.143.4091-.1655c.1448-.0224.2921-.0105.4327.035s.2716.1237.385.2296l8.9418 7.3751c.1181.0923.2189.2109.2966.3487.0776.1378.1305.2921.1555.4538s.0215.3276-.0101.4877c-.0316.1602-.0908.3114-.1741.4449-.0832.1334-.1889.2463-.3107.332-.1218.0858-.2573.1426-.3985.1671-.1411.0246-.2852.0163-.4236-.0242-.1384-.0404-.2683-.1124-.3821-.2116"/><path fill="#dfecf5" d="M19.0892 66.889c.1005-4.8465 2.0449-8.6394 4.0129-11.6234-6.6127 1.9493-12.4728 6.3753-16.65598 12.5797C2.26298 74.0498-.00498 81.6796.00001 89.5309v9.2103H45.6132c-10.1238-8.3267-26.8136-17.2787-26.524-31.8522" style="mix-blend-mode:multiply"/><path fill="#ff4a32" d="m76.5816 98.7412 7.092-12.276S83.3072 65.3935 78 61.1044c-2.4349-1.9576-4.1724-5.6553-5.319-9.088l-4.1842-13.7781h-2.364c.1832 6.3555 1.3298 13.0304 3.546 16.9933 1.6827 2.7969 3.0379 5.8365 4.0306 9.0404 1.1086 3.9173 1.6886 8.0069 1.7198 12.1264 0 8.1976-2.4645 15.7766-4.6689 22.3428z"/><path fill="#7d7664" d="M80.6165 109.187c5.7337-5.983 6.9092-15.2358 2.6256-20.6654s-12.4041-4.9804-18.1378 1.0033c-5.7336 5.9837-6.9091 15.2361-2.6255 20.6661 4.2835 5.429 12.4041 4.98 18.1377-1.004"/><path fill="#c2bec1" d="M77.8924 105.729c3.7177-3.88 4.4805-9.8787 1.7037-13.3984-2.7767-3.5197-8.0415-3.2277-11.7592.6522-3.7177 3.8798-4.4804 9.8782-1.7037 13.3982 2.7768 3.519 8.0416 3.227 11.7592-.652"/><path fill="#fff6f8" d="M75.3082 102.415c1.8272-1.908 2.2022-4.8557.8377-6.5846-1.3646-1.729-3.9519-1.5843-5.779.3232s-2.2022 4.8554-.8376 6.5844c1.3645 1.729 3.9518 1.584 5.7789-.323"/><path fill="#9fbfd4" d="M75.3219 84.6973c-7.0269 0-13.8293 6.5458-15.1945 14.6278-.4338 2.3829-.2886 4.8569.4196 7.1509l25.2178-11.073c-.4432-6.1719-4.5802-10.7057-10.4429-10.7057" style="mix-blend-mode:multiply"/><path fill="#ff4a32" d="M88.4227 89.9173c-3.7942-9.3803-13.723-13.5947-22.5466-9.4075-8.8236 4.1871-13.2797 15.2192-10.2243 24.9462zM38.4961 98.7423H7.48051c-.18056 0-.35933-.041-.52607-.1207-.16674-.0796-.31813-.1964-.44552-.3436-.1274-.1471-.22828-.3218-.29684-.5139s-.10347-.3979-.10269-.6055c0-4.3579 1.5048-8.5374 4.18351-11.6196 2.6786-3.0821 6.3119-4.8145 10.1009-4.8163h5.189c3.79 0 7.4248 1.7316 10.1048 4.8139 2.6799 3.0823 4.1855 7.2629 4.1855 11.622 0 .42-.1451.8228-.4033 1.1199-.2583.297-.6085.4638-.9737.4638"/><path fill="#9fbfd4" d="M51.2637 55.5645H29.8164v5.6077h21.4473z" style="mix-blend-mode:multiply"/><path fill="#7d7664" d="M68.6717 40.2375h-5.3663c-.3014 0-.5437-.4554-.5437-1.0128s.2423-1.0196.5437-1.0196h5.3663c.3073 0 .5496.4554.5496 1.0196s-.2423 1.0128-.5496 1.0128"/><path fill="#ff4a32" d="M81.8783 45.3013c0 4.1327-1.4302 7.477-3.1973 7.477s-10.1888-3.3443-10.1888-7.477c0-4.1328 8.4217-7.4771 10.1888-7.4771s3.1973 3.3511 3.1973 7.4771"/><path fill="#d83b29" d="M81.7757 47.3459c-1.3017.8124-2.7511 1.2617-4.2315 1.3119-2.6418 0-4.6394-1.5498-6.0696-2.651-.905-.6979-1.7413-1.507-2.494-2.413-.2931.5067-.4569 1.0977-.4728 1.7061 0 4.1327 8.4217 7.477 10.1888 7.477 1.442 0 2.6772-2.2975 3.0791-5.431"/><path fill="#fff6f8" d="M79.5938 52.7783c1.2599 0 2.2812-3.3476 2.2812-7.477 0-4.1295-1.0213-7.4771-2.2812-7.4771s-2.2813 3.3476-2.2813 7.4771c0 4.1294 1.0214 7.477 2.2813 7.477"/><path fill="#ff6c32" d="M75.9013 42.2423c0 .6798-.9928 1.176-2.2221 1.176s-2.2222-.5234-2.2222-1.176c0-.6525.9929-1.1759 2.2222-1.1759s2.2221.5302 2.2221 1.1759M73.1781 44.4239c0 .3738-.591.6797-1.2766.6797-.6855 0-1.2765-.2991-1.2765-.6797 0-.3807.591-.6798 1.2765-.6798.6856 0 1.2766.3059 1.2766.6798"/><path fill="#29201d" d="m74.6551 40.1152-1.6903-8.9249.071-.0204 1.6902 8.9317z"/><path fill="#fff6f8" d="M73.5022 31.3596c0 2.2499-.5909 4.0784-1.3888 4.0784-.7978 0-1.3829-1.8285-1.3829-4.0784s.6205-4.0784 1.3829-4.0784 1.3888 1.8285 1.3888 4.0784"/><path fill="#ff6c32" d="M78.0814 82.3268c.5555 1.8624-1.8498 4.4862-5.3663 5.8728-3.5164 1.3867-6.8142.9924-7.3697-.8632-.5555-1.8557 1.8498-4.493 5.3663-5.8729 3.5164-1.3799 6.8201-.9992 7.3697.8633M35.009 86.2285c.6324 1.8217-1.6548 4.5882-5.1062 6.172-3.4514 1.5837-6.7669 1.3594-7.3993-.4419s1.6548-4.5881 5.1062-6.1719 6.7669-1.3867 7.3993.4418M67.4145 95.5578c1.2992-.5034 2.1891-1.4694 1.9875-2.1577s-1.4183-.8383-2.7175-.3349c-1.2992.5033-2.189 1.4694-1.9875 2.1577.2016.6883 1.4183.8382 2.7175.3349"/><path fill="#ff4a32" d="M52.4457 53.3633H29.8164v5.6078h22.6293z"/><path fill="#dfecf5" d="M79.4755 46.2315c-1.182-1.7469-1.182-3.9016-.9633-5.6553-.5546 1.5503-.8165 3.2185-.7683 4.894 0 3.3239.8215 6.0157 1.8321 6.0157.7447 0 1.3829-1.4479 1.6666-3.5278-.6792-.441-1.2789-1.027-1.7671-1.7266M43.2797 57.332c1.4715.6185 2.8072 1.1691 4.0187 1.6381h5.1476v-5.601H35.0234c1.4894 1.1488 4.3439 2.3383 8.2563 3.9629" style="mix-blend-mode:multiply"/><path fill="#76bf2f" d="M37.73 33.6719s13.8944 11.3039 21.276 17.9925c6.6664 6.0292-2.63 4.8872-21.4946 1.4546-3.7529-.6797-4.2788-10.2979-2.4172-14.1044z"/><path fill="#76bf2f" d="M54.9378 54.5599s-4.4738.7749-6.6724 8.7549c-2.1985 7.9801-5.9099 18.1693-5.9099 18.1693l2.3108 1.91s8.9004-12.8333 12.4523-19.7122c1.8604-1.3871 3.2306-3.4908 3.8651-5.9341.9043-3.6365-.3605-4.6017-2.7777-6.5662z"/><path fill="#ffbc82" d="m41.3398 83.0456 1.383-2.6237 2.5472 2.0392-.9693 1.5294-1.3947 1.9168z"/><path fill="#76bf2f" d="M41.5888 82.6992s-2.0922 1.5498-2.6122 3.1336c0 0 3.28 2.8821 5.6144 5.4378 2.3345 2.5558 4.728 1.9917 3.4337-.1699-1.2942-2.1615-3.6937-7.0828-3.6937-7.0828s-1.4598 1.8217-2.7422-1.3187"/><path fill="#29201d" d="m44.3285 86.1593-.0473-.0612c.1404-.181.3277-.3052.5342-.3541.2065-.049.4213-.0202.6124.0822l-.0355.068c-.1783-.0946-.3785-.12-.5704-.0722-.192.0479-.3651.1663-.4934.3373M44.9496 87.0983l-.0473-.0544c.1413-.1795.3282-.303.534-.3531.2059-.05.4203-.024.6126.0744l-.0355.0748c-.1777-.0955-.3775-.1219-.5694-.0753s-.3654.1637-.4944.3336M43.7855 85.2496l-.0472-.0544c.1401-.1812.327-.3061.5334-.3562.2063-.0502.4212-.023.6131.0775l-.0354.0748c-.1777-.0954-.3776-.1219-.5695-.0753-.1918.0466-.3654.1637-.4944.3336"/><path fill="#9fbfd4" d="M37.1483 36.1103c-.6324.9176 1.182 4.9892 4.4207 6.0836 2.0153.6797 4.663.2379 4.8521-.7885.0226-.2426-.0366-.486-.1655-.6798l-3.7883-3.1471c-2.2813-1.3323-4.793-2.2227-5.319-1.4682" style="mix-blend-mode:multiply"/><path fill="#fff6f8" d="M47.8103 90.7687c-.5876.295-1.1381.6791-1.6371 1.142-.7447.4826-5.2303-5.4379-5.2303-5.4379-.1189-.8935-.3729-1.7562-.7506-2.549-.5322.5186-.958 1.1663-1.247 1.8965 0 0 3.28 2.882 5.6145 5.4378 2.3344 2.5558 4.728 1.9916 3.4337-.1699-.0591-.1088-.1241-.2107-.1832-.3195"/><path fill="#ffbc82" d="M53.4068 21.5643s1.2706-1.8217.591-2.7733c-.2115-.2961-.3544-.649-.4154-1.0258s-.038-.7652.0667-1.129c.591-1.6653 1.2174-3.3375 2.2162-4.2483l.7624-6.32149C54.438 8.23 52.3749 10.5575 50.4518 13.0337c-.922 1.2167-2.1453.904-2.6949.8904-1.182 0-2.2045 7.9257 3.8237 7.9461h.0532c1.2411-.0136.2128.6253 1.773-.3059"/><path fill="#de9066" d="M53.5006 17.2007v-.0952c.0107-.1603.0405-.3181.0887-.469.2187-.6322.4433-1.2643.6974-1.8557l-1.0816-2.9976s-1.2706 3.4462.2955 5.4175"/><path fill="#d83b29" d="M53.3535 23.8018s1.637-3.3987.6382-4.9825c0 0-.065-.5777-.9219-1.4274-1.5487-1.0286-3.0319-2.1825-4.4384-3.453-1.6016-.571-4.0661 1.1555-4.468 1.5566-4.462 4.4114-4.397 6.539-5.6381 10.3591 0 0-1.3593 6.3962-3.6701 8.619-.1654.1631 5.2895 7.8305 10.2716 7.6945.3823.0112.7625-.0702 1.1158-.2388s.6718-.4207.935-.74c.7936-2.7529 1.8941-5.3759 3.2741-7.8033 1.5594-2.9153 2.5495-6.1855 2.9018-9.5842"/><path fill="#ede92f" d="M37.8122 38.4561c-.9187.0254-1.8327-.1592-2.6889-.5431s-1.6377-.9594-2.2991-1.6932l.201-.2311c1.702 1.9644 4.3615 2.6305 7.0919 1.7809 3.4633-1.074 7.7717-4.9213 9.5033-12.5003.8983-3.922.6442-7.11-.7565-9.4686-1.9621-3.3035-5.5376-3.8133-5.5731-3.8201l.0295-.3263c.0355 0 3.7411.537 5.7741 3.956 1.4539 2.4403 1.7198 5.7166.8037 9.7406-1.7729 7.7149-6.17 11.637-9.7041 12.7313-.7764.2432-1.5771.3689-2.3818.3739"/><path fill="#9fbfd4" d="M49.7171 34.7516c-.1241-.8089-.2777-1.611-.4314-2.2907-1.2234-5.3903-4.0956-10.3387-4.9821-9.9513-.7861.3467.0414 4.8601.4373 6.6614.7009 3.2139 1.8655 6.2698 3.4455 9.0404.4381-1.1936.9497-2.3499 1.5307-3.4598" style="mix-blend-mode:multiply"/><path fill="#ffbc82" d="M59.7976 8.66326s0 8.35394-3.2269 7.78974c-3.9656-.6797-4.9702-7.35471-4.9289-10.97768 0-1.72652 1.4421-2.19552 2.9018-2.60336 2.2754-.63215 5.319 1.04678 5.254 5.7913"/><path fill="#85321a" d="M59.2426 4.08915c-.8097-1.70613-2.9964-2.88886-5.319-2.67814-1.0416.05884-2.0272.55982-2.7662 1.40606-.7391.84624-1.1791 1.97762-1.2348 3.17533-.3074 4.0308 2.4231 4.8057 2.4231 4.8057s2.5058.3195 3.9183-4.61538c3.3273 1.06038 3.7883-.42143 2.9786-2.09357"/><path fill="#ffbc82" d="M59.6689 8.99609c.1105.87154.2764 1.73261.4965 2.57621.2364.6797 0 1.1963-1.0638 1.1351"/><path fill="#29201d" d="M58.0876 13.1849c-.2657-.0407-.5211-.1445-.75-.3048-.229-.1603-.4264-.3736-.5798-.6264l.0591-.0408s.727 1.1623 1.5839.8293v.0747c-.1006.0416-.2064.0646-.3132.068"/><path fill="#ffbc82" d="M51.4653 11.5665c.1627.176.3653.2953.5844.3443.2192.0489.4459.0255.6539-.0676.2081-.093.389-.252.5218-.4584.1327-.2064.212-.4519.2285-.7079.0165-.2561-.0304-.5123-.1352-.73901s-.2633-.41462-.4572-.54201c-.1938-.12738-.415-.18902-.6381-.17778-.223.01123-.4387.09488-.6221.24127-.2554.26274-.4122.62913-.4375 1.02203-.0254.393.0827.7819.3015 1.0851M44.637 16.5409c-.7506.5098-.8333 2.9024-.3901 3.9696 1.2175 2.9296 3.3687 15.3144 4.994 16.769 1.8498 1.6585 8.2739 1.3594 11.3944 1.3594l.7151-2.0392s-7.7598-2.5489-9.6392-2.3382c0-.0272-2.6004-20.7726-7.0742-17.7206"/><path fill="#d83b29" d="M48.8216 18.7378c1.0461 3.453 2.8486 10.5426 2.8486 10.5426s-3.3686 1.5158-5.4667.6798l-3.3687-9.6658c-.298-.8591-.3377-1.8081-.1128-2.6961.2248-.8881.7014-1.6641 1.3539-2.2048 1.6489-1.3798 4.0838 1.142 4.7457 3.3443M50.904 12.3008l2.3935 5.1659-2.0862 1.8013-2.7777-5.3699z"/><path fill="#d83b29" d="m53.8729 16.8887-.662.5709.1537 2.2092.8215-.4554z"/><path fill="#29201d" d="m53.616 16.6367.2601.2515-.3724.3263s-.0354-.0952.1123-.5778M53.2491 19.9123l-.0059-.0679-.1536-2.0392-1.8735 1.5769-.0177-.0407-2.8664-5.3631.0591-.0408 2.8486 5.3291 1.909-1.611.1595 2.1208.8511-.5506.0354.068z"/><path fill="#fff" d="M59.7388 9.56055s-.396 1.71975-1.117 2.31785c-.721.5982-1.8144-.034-2.364.639 0 0 0 3.5958 1.6607 3.487 3.9065-.2447 1.8203-6.44385 1.8203-6.44385"/><path fill="#e6e6e6" d="M58.0938 14.7343c-1.0638.068-1.4479-1.3595-1.5839-2.4198-.0912.0531-.1749.1218-.2482.2039 0 0 0 3.5957 1.6607 3.487 1.8439-.1156 2.364-1.5634 2.364-3.0588-.1394.5368-.431 1.0045-.8284 1.3285s-.8776.4857-1.3642.4592"/><path fill="#fff" d="M57.1262 12.7555c-2.4054-.7613-4.4561-3.30345-4.4739-3.33064l.1537-.16314s2.0272 2.51498 4.3793 3.25588z"/><path fill="#ffbc82" d="M63.5544 36.3555s3.8947.7953 3.9243 1.1827c.0295.3875.1063 4.0784.1063 4.0784s-.9455.1699-1.7197-3.0656c0 0-3.6879 1.2439-6.1583.0816l1.0875-2.1548z"/><path fill="#76bf2f" d="M60.3631 3.87136c.1832-2.39946-4.2197-4.12597-6.8083-3.84048s-4.267 2.55579-4.5152 5.49223c-.396 4.75809 2.6358 5.65539 2.6358 5.65539s1.182-.3875 2.8486-6.24676c3.6879 1.23712 5.6677 1.19632 5.8391-1.06038"/><path fill="#f7ebd5" d="M52.9125 7.57596c-.0125.03998-.0317.07669-.0567.10798s-.0552.05654-.0887.07426c-.0336.01772-.0699.02757-.1068.02896-.037.00139-.0737-.00571-.1083-.02087l-2.098-.90404c-.0683-.03192-.1234-.09258-.1542-.16962-.0307-.07704-.0348-.16467-.0113-.24502.0131-.03937.0329-.07538.0581-.10594s.0555-.05508.089-.07214.0696-.02633.1062-.02726c.0367-.00094.0731.00648.1073.02181l2.0862.90404c.0356.01222.0686.03271.0971.06019.0284.02748.0517.06137.0683.09959s.0262.07995.0283.12262a.356.356 0 0 1-.0165.12544M53.2499 6.54891c-.0266.07962-.0791.14411-.1465.17969-.0674.03557-.1442.03939-.214.01064l-2.0862-.90404c-.0692-.03053-.1253-.09102-.1562-.16852-.031-.07749-.0343-.16584-.0093-.24611.0277-.07853.0805-.14195.1475-.17731.0669-.03536.1431-.04003.213-.01303l2.0862.91085c.0688.02912.1248.08832.1558.16472.031.07639.0345.16377.0097.24311M53.5858 5.52333c-.0265.07962-.0791.14411-.1465.17968s-.1442.03939-.214.01065l-2.0862-.90405c-.0692-.03053-.1253-.09103-.1562-.16852s-.0342-.16584-.0093-.24612c.0266-.07961.0792-.14411.1466-.17968s.1442-.03939.2139-.01064l2.0863.91084c.0688.02911.1247.08832.1557.16471s.0345.16379.0097.24313"/><path fill="#9fbfd4" d="M41.1024 50.3104c-1.9384-1.0604-2.9018-1.5906-3.5459-2.5966-3.812-6.1176 3.4987-20.5347 7.9134-29.2624 1.1406-2.2431 1.9267-3.6502 2.3995-4.6018-1.3465.1619-2.6304.7371-3.7174 1.6653-4.462 4.4115-4.397 6.5391-5.6381 10.3592 0 0-1.3593 6.3962-3.6701 8.6189.3908.7635.8834 1.4516 1.4597 2.0392l-1.182 2.4539c-1.8616 3.8065-1.3356 13.4179 2.4172 14.1044 6.2351 1.1351 11.4181 2.0392 15.3305 2.4742-1.4656 1.0944-3.3805 3.3035-4.598 7.7218-.8214 2.9908-1.8675 6.3011-2.8427 9.2647 1.2441-1.3508 2.2688-2.946 3.026-4.7105.9692-2.3111.8451-3.589 2.4053-6.9877 2.2222-4.8397 4.137-5.8457 3.676-7.1575-.7801-2.2228-6.5069.4282-13.4334-3.3851" style="mix-blend-mode:multiply"/><path fill="#ede92f" d="M45.9227 11.955 25.3711 4.87695 17.8964 33.5868l20.5516 7.078z"/><path fill="#fff6f8" d="M38.9771 25.8404c-.4368 1.5512-1.2637 2.9186-2.3762 3.9293-1.1124 1.0107-2.4604 1.6194-3.8735 1.7491-1.4132.1298-2.828-.2253-4.0657-1.0204-1.2377-.795-2.2427-1.9942-2.8879-3.446-.6452-1.4519-.9017-3.0911-.737-4.7106.1648-1.6194.7433-3.1464 1.6624-4.3877.9191-1.2414 2.1376-2.1415 3.5015-2.5864 1.3638-.445 2.8117-.4149 4.1607.0864.8962.3331 1.7265.8661 2.4436 1.5684s1.3068 1.5602 1.7354 2.5248c.4287.9645.6878 2.0168.7628 3.0966.0749 1.0798-.0359 2.166-.3261 3.1965"/><path fill="#ffad4b" d="m34.2357 27.2003-6.2409-2.345c-.1366-.0509-.2632-.1323-.3724-.2394-.1093-.1071-.1992-.2379-.2645-.385s-.1048-.3075-.1162-.4721.0055-.3302.0498-.4873l8.3271 3.0996c-.0423.1597-.1119.3081-.2047.4365-.0928.1285-.2068.2344-.3356.3116-.1287.0772-.2695.1241-.4142.138-.1447.014-.2903-.0054-.4284-.0569"/><path fill="#d83b29" d="m34.8444 26.0998-6.7551-2.5082c-.2107-.0809-.3852-.2539-.4858-.4815-.1007-.2277-.1193-.4918-.052-.7352.0703-.2359.2173-.4313.4101-.5454.1928-.114.4164-.1378.6241-.0664l6.7551 2.515c.2116.0793.3872.2521.488.4803.1009.2281.1188.4931.0499.7364-.0715.2347-.2189.4285-.4116.5412s-.4157.1355-.6227.0638"/><mask id="a" width="9" height="6" x="27" y="21" maskUnits="userSpaceOnUse" style="mask-type:luminance"><path fill="#fff" d="m34.8444 26.0998-6.7551-2.5082c-.2107-.0809-.3852-.2539-.4858-.4815-.1007-.2277-.1193-.4918-.052-.7352.0703-.2359.2173-.4313.4101-.5454.1928-.114.4164-.1378.6241-.0664l6.7551 2.515c.2116.0793.3872.2521.488.4803.1009.2281.1188.4931.0499.7364-.0715.2347-.2189.4285-.4116.5412s-.4157.1355-.6227.0638"/></mask><g fill="#85321a" mask="url(#a)"><path d="m28.3706 21.1161-.5894.1749.7576 3.3764.5894-.1749zM29.898 21.6786l-.5894.1749.7576 3.3764.5894-.1749zM31.4215 22.2489l-.5895.1749.7576 3.3764.5894-.1749zM32.9449 22.8524l-.5894.1749.7575 3.3765.5894-.175zM34.4683 23.4169l-.5894.1749.7576 3.3764.5894-.1749z"/></g><path fill="#ffad4b" d="M36.303 25.1602c.2108-1.2995.0029-2.6428-.5849-3.7788s-1.5153-1.9868-2.6089-2.3933c-1.0937-.4065-2.2786-.3409-3.3333.1846-1.0547.5254-1.9068 1.4747-2.397 2.6704z"/><path fill="#ffc94b" d="M35.4063 23.1223c-.3014.3127-.9751 0-1.4952-.6389-.5201-.639-.7092-1.4682-.4078-1.7809s.9751 0 1.5011.6389c.526.639.7033 1.4411.4019 1.7809"/><path fill="#9fbfd4" d="M28.9462 28.3697c-3.8001-7.5926-4.3261-15.4095-4.137-21.37751L17.8945 33.5697l20.549 7.0692.0887-.3399c-3.8854-3.1618-7.151-7.2257-9.586-11.9293" style="mix-blend-mode:multiply"/><path fill="#dfecf5" d="M65.4117 97.368c-3.6819-2.9772-4.5802-8.2723-4.9644-12.9149-5.0589 5.3223-7.1333 13.5335-4.793 20.9829l13.3448-6.3279c-1.2872-.2898-2.5085-.8822-3.5874-1.7401" style="mix-blend-mode:multiply"/><path fill="#9fbfd4" d="M51.4922 2.72829c.0852-.53543.2663-1.04462.5318-1.49517.2656-.45054.6098-.83257 1.0107-1.1218-2.2871.5234-3.7646 2.67135-3.9951 5.43785-.396 4.75813 2.6358 5.65533 2.6358 5.65533s.8865-.2854 2.1631-4.03077c-.6915-1.5158-2.4822-2.54219-2.3463-4.44544" style="mix-blend-mode:multiply"/></svg>